#!OML:ASF H:\Terrain\Patient Classification 1\Walking\steve\steve.ASF
:FULLY-SPECIFIED
:DEGREES
439
root 8.53996 16.227 23.0676 6.44276 1.31236 4.70091
lowerback -0.106298 -1.00464 -4.31126
upperback -2.50269 -1.39391 0.171678
thorax -2.40906 -0.603418 2.61879
lowerneck -9.36258 -0.227227 -2.11638
upperneck 18.5746 0.0870129 -0.210021
head 7.23266 -0.124138 0.292235
rclavicle 3.10601e-016 4.77083e-015
rhumerus -65.9853 -23.7528 -56.5706
rradius 20.9147
rwrist 10.7047
rhand -14.8445 -35.9311
rfingers 7.12502
rthumb 11.3147 -65.6059
lclavicle 3.10601e-016 4.77083e-015
lhumerus -8.82864 -7.74027 85.5607
lradius 43.1872
lwrist 24.4809
lhand -23.3343 -14.6582
lfingers 7.12502
lthumb 3.12027 15.2987
rfemur -43.1854 3.68962 17.3125
rtibia 32.64
rfoot -6.86921 3.68164
rtoes -1.502
lfemur 20.8324 -1.24739 -29.341
ltibia 1.90833e-014
lfoot -9.49238 -4.68442
ltoes -10.6834
440
root 8.53931 16.2245 23.2485 6.48616 1.39548 4.48539
lowerback 0.0626391 -0.958393 -3.89325
upperback -2.59661 -1.33339 0.305226
thorax -2.61055 -0.574911 2.52561
lowerneck -9.42767 -0.22732 -2.01317
upperneck 18.5922 0.131401 -0.520145
head 7.25027 -0.123342 0.178314
rclavicle -2.47114e-014 8.34896e-015
rhumerus -65.7946 -23.4558 -56.9081
rradius 20.933
rwrist 10.5287
rhand -15.1308 -36.0827
rfingers 7.12502
rthumb 11.0386 -65.7724
lclavicle -2.47114e-014 8.34896e-015
lhumerus -9.22602 -7.75969 85.8656
lradius 43.1395
lwrist 24.2877
lhand -23.6854 -14.5459
lfingers 7.12502
lthumb 2.78114 15.4157
rfemur -43.2394 3.9192 17.4518
rtibia 33.7075
rfoot -6.52729 3.07442
rtoes 1.68867
lfemur 21.3932 -1.34026 -29.0888
ltibia -6.36111e-014
lfoot -8.57763 -4.29741
ltoes -13.2071
441
root 8.53791 16.1994 23.4223 6.58018 1.28125 4.05913
lowerback 0.736482 -0.824614 -3.11581
upperback -3.13966 -1.17363 0.355781
thorax -3.57611 -0.488692 2.15674
lowerneck -9.20444 -0.259816 -1.96249
upperneck 19.0289 0.0804856 -0.53807
head 7.3531 -0.149223 0.159641
rclavicle 5.5287e-016 4.37326e-015
rhumerus -66.2707 -22.777 -57.3382
rradius 20.9358
rwrist 10.5808
rhand -15.4827 -35.7735
rfingers 7.12502
rthumb 10.6991 -65.4811
lclavicle 5.5287e-016 4.37326e-015
lhumerus -10.5173 -8.16336 86.1118
lradius 43.2911
lwrist 24.2645
lhand -24.3926 -14.176
lfingers 7.12502
lthumb 2.09819 15.7934
rfemur -43.3896 4.37034 17.8013
rtibia 34.9082
rfoot -6.55174 2.53697
rtoes 0.489295
lfemur 21.9866 -1.22284 -28.6542
ltibia -5.725e-014
lfoot -7.13902 -4.09944
ltoes -13.9523
442
root 8.54712 16.177 23.591 6.60053 1.20812 3.99315
lowerback 0.388949 -0.873459 -2.91482
upperback -2.77533 -1.21165 0.557373
thorax -2.99921 -0.524443 2.24231
lowerneck -9.67494 -0.229771 -2.1779
upperneck 18.8252 0.196105 -0.67365
head 7.37076 -0.120426 0.161577
rclavicle -1.25359e-014 -1.59028e-014
rhumerus -65.1626 -23.4284 -56.7524
rradius 20.1486
rwrist 12.162
rhand -15.4308 -35.4453
rfingers 7.12502
rthumb 10.7492 -65.1503
lclavicle -1.25359e-014 -1.59028e-014
lhumerus -10.4405 -7.56945 86.3876
lradius 43.0578
lwrist 23.987
lhand -24.8534 -14.4223
lfingers 7.12502
lthumb 1.65312 15.5511
rfemur -43.4396 4.41897 17.8434
rtibia 36.1658
rfoot -6.67451 2.71728
rtoes -0.0414884
lfemur 22.656 -1.16334 -28.6188
ltibia 4.45278e-014
lfoot -5.04969 -3.92464
ltoes -10.3868
443
root 8.55779 16.1808 23.7583 6.61446 1.20975 3.97589
lowerback 0.394059 -0.882273 -2.60658
upperback -2.60723 -1.21254 0.672958
thorax -2.83125 -0.535484 2.18649
lowerneck -10.0933 -0.14054 -2.40461
upperneck 18.8236 0.36938 -0.65826
head 7.44399 -0.0530326 0.22031
rclavicle 4.83295e-015 3.97569e-015
rhumerus -64.6634 -24.9687 -54.7457
rradius 19.0149
rwrist 14.8743
rhand -15.3262 -34.9523
rfingers 7.12502
rthumb 10.8501 -64.652
lclavicle 4.83295e-015 3.97569e-015
lhumerus -10.6634 -6.9239 86.6253
lradius 42.7441
lwrist 23.5776
lhand -24.2723 -14.6829
lfingers 7.12502
lthumb 2.21436 15.2854
rfemur -43.4387 3.97501 18.0663
rtibia 37.3712
rfoot -6.85035 3.12251
rtoes -1.9044
lfemur 23.2001 -1.18206 -28.6197
ltibia 5.40694e-014
lfoot -3.38596 -3.25855
ltoes -11.4026
444
root 8.56571 16.1923 23.9337 6.5288 1.01758 3.68123
lowerback 0.220685 -0.847127 -2.11223
upperback -2.29695 -1.14628 0.85137
thorax -2.42215 -0.520213 2.08414
lowerneck -10.5726 -0.0282168 -2.29014
upperneck 18.8095 0.570943 -0.925094
head 7.52493 0.0254957 0.13329
rclavicle -3.00662e-014 7.95139e-016
rhumerus -64.2503 -26.8737 -52.4296
rradius 17.7843
rwrist 18.5241
rhand -15.6598 -34.2214
rfingers 7.12502
rthumb 10.5283 -63.9377
lclavicle -3.00662e-014 7.95139e-016
lhumerus -10.8053 -6.38474 86.742
lradius 42.4009
lwrist 23.2954
lhand -23.4655 -14.9052
lfingers 7.12502
lthumb 2.9936 15.0535
rfemur -43.3026 3.57911 18.6984
rtibia 38.5028
rfoot -7.11928 3.67535
rtoes -4.266
lfemur 23.7827 -0.978248 -28.3136
ltibia 6.36111e-015
lfoot -2.00261 -2.67329
ltoes -14.9945
445
root 8.56986 16.1959 24.1194 6.38175 0.530951 3.39387
lowerback 0.24354 -0.707539 -1.70856
upperback -2.20967 -0.950866 0.987309
thorax -2.35872 -0.430758 1.9926
lowerneck -10.281 -0.061637 -2.42824
upperneck 18.4844 0.551038 -1.00578
head 7.367 0.00405396 0.127715
rclavicle -9.56651e-015 1.66979e-014
rhumerus -63.7172 -27.0886 -52.309
rradius 17.4492
rwrist 19.6741
rhand -15.9711 -34.3048
rfingers 7.12502
rthumb 10.2281 -64.0362
lclavicle -9.56651e-015 1.66979e-014
lhumerus -11.5023 -5.94784 86.9736
lradius 42.0415
lwrist 23.0775
lhand -23.2154 -15.4541
lfingers 7.12502
lthumb 3.23513 14.5011
rfemur -43.0618 3.52629 19.2869
rtibia 39.5593
rfoot -7.36615 4.53923
rtoes -3.93419
lfemur 20.9752 -0.487726 -27.9635
ltibia 6.6787
lfoot -3.26395 -3.42095
ltoes -15.9406
